<svg width="14" height="14" viewBox="0 0 14 14" fill="none" xmlns="http://www.w3.org/2000/svg">
<path d="M5.05021 11.3787C4.98192 11.2245 4.86294 11.2089 4.81479 11.2089C4.76665 11.2089 4.64767 11.2242 4.58285 11.3701L4.40531 11.7695C4.25785 12.1024 3.82591 12.0656 3.7229 11.7151L3.33332 10.4008L3.08772 11.231C2.95138 11.6909 2.56966 12 2.13865 12H1.85184C1.64722 12 1.48148 11.8136 1.48148 11.5833C1.48148 11.3531 1.64722 11.1667 1.85184 11.1667H2.13865C2.25045 11.1667 2.34953 11.0865 2.38494 10.9672L2.80601 9.54428C2.8824 9.28881 3.09397 9.11694 3.33332 9.11694C3.57267 9.11694 3.78424 9.28855 3.8604 9.54428L4.18169 10.6287C4.63887 10.207 5.43308 10.3761 5.70947 10.9974C5.75322 11.0958 5.83655 11.1524 5.92613 11.1604V9.02189L8.88908 5.71225V4.50001H5.74072C5.43516 4.50001 5.18516 4.21876 5.18516 3.87501V0.333344H0.555553C0.247684 0.333344 0 0.611989 0 0.958344V13.0417C0 13.388 0.247684 13.6667 0.555553 13.6667H8.3333C8.64117 13.6667 8.88885 13.388 8.88885 13.0417V12L5.9259 11.9971C5.55275 11.9891 5.21803 11.7555 5.05021 11.3787ZM8.88885 3.50782C8.88885 3.34376 8.83098 3.18491 8.72681 3.06772L6.46062 0.515635C6.35645 0.398448 6.21525 0.333344 6.0671 0.333344H5.9259V3.66668H8.88885V3.50782ZM6.66664 9.36876V11.1667H8.26362L12.0062 6.92761L10.4349 5.15991L6.66664 9.36876ZM13.1606 4.6909L12.4229 3.86095C12.1928 3.60209 11.8194 3.60209 11.5893 3.86095L10.9585 4.57058L12.5298 6.33829L13.1606 5.62866C13.3909 5.3698 13.3909 4.94975 13.1606 4.6909Z" fill="white"/>
</svg>
