<svg width="20" height="20" viewBox="0 0 20 20" fill="none" xmlns="http://www.w3.org/2000/svg">
<path d="M0.625 11.25C0.28125 11.25 0 11.5312 0 11.875V13.125C0 13.4688 0.28125 13.75 0.625 13.75H5V11.25H0.625ZM19.7266 4.10156L15.9023 0.273438C15.7266 0.0976562 15.4883 0 15.2383 0H15V5H20V4.76172C20 4.51563 19.9023 4.27734 19.7266 4.10156ZM13.75 5.3125V0H5.9375C5.41797 0 5 0.417969 5 0.9375V11.25H10V8.70313C10 8.14453 10.6758 7.86719 11.0703 8.26172L14.8047 12.0312C15.0625 12.293 15.0625 12.7109 14.8047 12.9688L11.0664 16.7344C10.6719 17.1289 9.99609 16.8516 9.99609 16.293V13.75H5V19.0625C5 19.582 5.41797 20 5.9375 20H19.0625C19.582 20 20 19.582 20 19.0625V6.25H14.6875C14.1719 6.25 13.75 5.82812 13.75 5.3125Z" fill="white"/>
</svg>
