<svg width="24" height="24" viewBox="0 0 24 24" fill="none" xmlns="http://www.w3.org/2000/svg">
<path d="M3.31411 7.71094L11.2454 11.5406C11.4516 11.6391 11.7282 11.6906 12 11.6906C12.2719 11.6906 12.5485 11.6391 12.7547 11.5406L20.686 7.71094C21.1032 7.50937 21.1032 7.18125 20.686 6.97969L12.7547 3.15C12.5485 3.05156 12.2719 3 12 3C11.7282 3 11.4516 3.05156 11.2454 3.15L3.31411 6.97969C2.89692 7.18125 2.89692 7.50937 3.31411 7.71094Z" fill="black"/>
<path d="M20.686 11.6344C20.686 11.6344 19.2375 10.9359 19.0453 10.8422C18.8531 10.7484 18.8016 10.7531 18.6 10.8469C18.3985 10.9406 12.75 13.6687 12.75 13.6687C12.5391 13.7672 12.2672 13.8187 11.9953 13.8187C11.7235 13.8187 11.4469 13.7672 11.2407 13.6687C11.2407 13.6687 5.74221 11.0156 5.4844 10.8891C5.20315 10.7531 5.12346 10.7531 4.87034 10.875C4.60784 11.0016 3.30471 11.6297 3.30471 11.6297C2.88752 11.8312 2.88752 12.1594 3.30471 12.3609L11.236 16.1906C11.4422 16.2891 11.7188 16.3406 11.9907 16.3406C12.2625 16.3406 12.5391 16.2891 12.7453 16.1906L20.6766 12.3609C21.1032 12.1641 21.1031 11.8359 20.686 11.6344Z" fill="black"/>
<path d="M20.686 16.2891C20.686 16.2891 19.2375 15.5906 19.0453 15.4969C18.8532 15.4031 18.8016 15.4078 18.6 15.5016C18.3985 15.5953 12.7547 18.3281 12.7547 18.3281C12.5438 18.4266 12.2719 18.4781 12 18.4781C11.7282 18.4781 11.4516 18.4266 11.2453 18.3281C11.2453 18.3281 5.74691 15.675 5.4891 15.5484C5.20785 15.4125 5.12816 15.4125 4.87504 15.5344C4.61254 15.6609 3.30941 16.2891 3.30941 16.2891C2.89222 16.4906 2.89222 16.8188 3.30941 17.0203L11.2407 20.85C11.4469 20.9531 11.7235 21 11.9953 21C12.2672 21 12.5438 20.9484 12.75 20.85L20.6813 17.0203C21.1032 16.8188 21.1032 16.4906 20.686 16.2891Z" fill="black"/>
</svg>
